<svg width="318.601" height="37.351" viewBox="0 0 318.601 37.351" xmlns="http://www.w3.org/2000/svg"><g id="svgGroup" stroke-linecap="round" fill-rule="evenodd" font-size="9pt" stroke="#ffc800" stroke-width="0.25mm" fill="#ffc800" style="stroke:#ffc800;stroke-width:0.25mm;fill:#ffc800"><path d="M 164.7 20.15 L 164.95 16.6 Q 165.517 8.767 165.548 7.391 A 6.218 6.218 0 0 0 165.55 7.25 Q 165.55 3.302 165.7 1.352 A 37.785 37.785 0 0 1 165.7 1.35 Q 165.8 0 167.1 0 A 5.693 5.693 0 0 1 167.581 0.02 A 4.731 4.731 0 0 1 167.85 0.05 Q 168.139 0.091 168.325 0.099 A 1.937 1.937 0 0 0 168.4 0.1 L 172.65 0.05 A 8.783 8.783 0 0 1 173.164 0.064 Q 173.713 0.096 174.072 0.203 A 1.845 1.845 0 0 1 174.275 0.275 A 1.647 1.647 0 0 1 175.017 0.91 A 2.105 2.105 0 0 1 175.1 1.05 Q 175.6 2.1 176.35 3.75 L 178.2 7.75 L 180.55 12.9 Q 181.132 14.152 182.033 16.125 A 1214.796 1214.796 0 0 1 182.25 16.6 A 284.093 284.093 0 0 0 182.734 17.655 Q 183.34 18.968 183.675 19.649 A 26.946 26.946 0 0 0 183.75 19.8 Q 184.6 21.55 184.85 21.95 L 186.25 24.7 L 187.8 27.75 L 187.7 24.85 L 187.5 19.95 L 187.5 18.45 Q 187.5 15.7 187.6 12.9 Q 187.6 11.022 187.56 9.783 A 46.14 46.14 0 0 0 187.55 9.5 L 187.5 5.7 L 187.7 0.9 A 1.08 1.08 0 0 1 187.737 0.603 Q 187.833 0.27 188.173 0.182 A 1.105 1.105 0 0 1 188.45 0.15 A 1.503 1.503 0 0 1 188.584 0.157 Q 188.799 0.177 189.192 0.25 A 19.661 19.661 0 0 1 189.45 0.3 A 4.269 4.269 0 0 0 190.215 0.397 A 4.864 4.864 0 0 0 190.4 0.4 L 191.2 0.4 A 2.531 2.531 0 0 1 191.362 0.405 Q 191.611 0.421 191.713 0.491 A 0.22 0.22 0 0 1 191.725 0.5 Q 191.85 0.6 191.85 0.85 A 1.906 1.906 0 0 1 191.839 1.049 Q 191.827 1.167 191.8 1.3 A 2.524 2.524 0 0 0 191.76 1.597 A 3.227 3.227 0 0 0 191.75 1.85 L 191.7 6.15 L 191.6 16.25 L 191.55 17.7 Q 191.55 19.4 191.6 20.8 Q 191.65 22.2 191.7 23.1 Q 191.847 25.198 191.85 26.63 A 28.536 28.536 0 0 1 191.85 26.7 A 0.076 0.076 0 0 1 191.85 26.694 Q 191.855 26.694 192 32.65 L 192.1 35.45 L 192.1 35.55 Q 192.1 36.516 191.214 36.456 A 1.734 1.734 0 0 1 191.15 36.45 A 0.609 0.609 0 0 0 191.063 36.429 Q 190.895 36.4 190.55 36.4 L 189.1 36.45 L 188.8 36.45 Q 188.581 36.45 188.43 36.391 A 0.536 0.536 0 0 1 188.275 36.3 A 0.772 0.772 0 0 1 188.188 36.208 Q 188.054 36.047 187.841 35.691 A 13.572 13.572 0 0 1 187.7 35.45 A 14.807 14.807 0 0 1 187.619 35.256 Q 187.529 35.037 187.412 34.738 A 57.308 57.308 0 0 1 187.3 34.45 A 29.338 29.338 0 0 0 187.035 33.785 Q 186.881 33.413 186.7 33 A 332.549 332.549 0 0 0 185.758 30.658 Q 184.579 27.761 183.878 26.237 A 29.91 29.91 0 0 0 183.6 25.65 A 39.149 39.149 0 0 1 183.07 24.587 Q 181.666 21.684 178.05 13.6 A 100.711 100.711 0 0 0 176.988 11.488 A 123.807 123.807 0 0 0 175.8 9.25 L 174.35 6.65 L 174.5 11.4 L 174.55 14.35 A 542.31 542.31 0 0 1 174.589 15.686 Q 174.636 17.366 174.647 18.24 A 37.489 37.489 0 0 1 174.65 18.7 Q 174.65 22.8 174.8 26.95 L 174.85 30.85 A 30.338 30.338 0 0 0 174.857 31.434 Q 174.875 32.4 174.95 33.9 L 175.05 35.65 L 175.05 35.75 A 1.556 1.556 0 0 1 175.037 35.965 Q 175.001 36.22 174.873 36.344 A 0.395 0.395 0 0 1 174.8 36.4 A 0.913 0.913 0 0 1 174.575 36.494 Q 174.465 36.525 174.334 36.539 A 2.24 2.24 0 0 1 174.1 36.55 L 173 36.6 A 14.861 14.861 0 0 1 171.629 36.729 A 17.897 17.897 0 0 1 170.75 36.75 Q 169.498 36.75 168.646 36.79 A 22.803 22.803 0 0 0 168.45 36.8 L 165.9 36.85 Q 165.328 36.85 165.047 36.69 A 0.591 0.591 0 0 1 164.9 36.575 A 1.184 1.184 0 0 1 164.648 36.152 A 1.146 1.146 0 0 1 164.6 35.95 Q 164.563 35.686 164.525 35.536 A 1.194 1.194 0 0 0 164.5 35.45 Q 164.347 34.761 164.311 33.837 A 15.141 15.141 0 0 1 164.3 33.25 Q 164.3 32.331 164.33 31.618 A 23.653 23.653 0 0 1 164.35 31.2 A 162.313 162.313 0 0 1 164.364 29.127 Q 164.388 27.297 164.45 25.125 Q 164.55 21.65 164.7 20.15 Z M 235.65 35.65 A 0.589 0.589 0 0 0 235.667 35.798 Q 235.714 35.979 235.892 36.03 A 0.576 0.576 0 0 0 236.05 36.05 A 32.7 32.7 0 0 0 236.139 36.05 Q 237.052 36.047 237.553 35.994 A 3.397 3.397 0 0 0 237.85 35.95 A 0.275 0.275 0 0 0 237.857 35.95 Q 237.903 35.949 238.047 35.934 A 14.765 14.765 0 0 0 238.125 35.925 A 0.333 0.333 0 0 0 238.136 35.924 Q 238.303 35.899 238.34 35.716 A 0.593 0.593 0 0 0 238.35 35.6 L 238.3 35.3 A 9.469 9.469 0 0 1 238.288 35.212 A 10.301 10.301 0 0 1 238.2 33.85 L 238.25 31.85 L 238.35 28.55 A 624.825 624.825 0 0 0 238.381 27.747 Q 238.55 23.184 238.55 21.25 A 233.23 233.23 0 0 1 238.556 19.716 Q 238.568 17.888 238.607 15.442 A 850.318 850.318 0 0 1 238.65 12.925 Q 238.75 7.6 238.9 6.1 Q 239.05 4.6 239.144 3.677 A 543.89 543.89 0 0 1 239.2 3.125 A 114.6 114.6 0 0 1 239.235 2.795 Q 239.309 2.087 239.35 1.8 L 239.45 1.4 A 0.41 0.41 0 0 0 239.318 1.093 Q 239.252 1.029 239.151 0.978 A 1.231 1.231 0 0 0 238.95 0.9 Q 238.763 0.825 238.378 0.806 A 5.733 5.733 0 0 0 238.1 0.8 A 11.272 11.272 0 0 1 238.022 0.8 Q 237.536 0.796 237.35 0.75 L 236.8 0.7 A 0.816 0.816 0 0 0 236.593 0.724 Q 236.391 0.778 236.306 0.948 A 0.601 0.601 0 0 0 236.25 1.15 L 236.15 4.65 A 892.332 892.332 0 0 0 236.084 6.677 Q 235.986 9.768 235.96 11.427 A 66.64 66.64 0 0 0 235.95 12.45 L 236 15.2 L 236 16.7 A 48.182 48.182 0 0 1 235.328 16.721 Q 234.126 16.75 232.25 16.75 A 119.253 119.253 0 0 1 231.188 16.771 Q 229.286 16.8 226.3 16.8 A 21.516 21.516 0 0 1 226.14 16.799 Q 225.422 16.794 224.044 16.743 A 230.981 230.981 0 0 1 222.95 16.7 L 221.1 16.65 L 218.1 16.55 L 218.25 13.6 L 218.45 8.65 A 200.102 200.102 0 0 0 218.49 7.895 Q 218.65 4.757 218.65 2.7 A 2.099 2.099 0 0 1 218.65 2.675 Q 218.652 2.564 218.664 2.363 A 18.408 18.408 0 0 1 218.675 2.2 A 1.627 1.627 0 0 0 218.679 2.084 A 1.544 1.544 0 0 0 218.575 1.525 Q 218.45 1.2 217.9 1.2 A 18.396 18.396 0 0 1 217.768 1.2 Q 217.371 1.197 217.08 1.176 A 5.155 5.155 0 0 1 216.8 1.15 L 215.5 1.1 A 13.297 13.297 0 0 0 215.49 1.1 Q 214.898 1.1 214.65 1.15 A 56.748 56.748 0 0 1 214.596 1.156 Q 213.908 1.232 213.617 1.247 A 2.385 2.385 0 0 1 213.5 1.25 L 212.4 1.2 A 1.602 1.602 0 0 0 212.253 1.207 Q 211.866 1.242 211.675 1.475 A 0.469 0.469 0 0 0 211.637 1.529 Q 211.45 1.839 211.45 2.75 L 211.35 15.7 L 211.45 33 A 22.53 22.53 0 0 1 211.449 33.236 Q 211.446 33.522 211.436 33.928 A 106.79 106.79 0 0 1 211.425 34.35 Q 211.408 34.979 211.488 35.413 A 2.278 2.278 0 0 0 211.575 35.75 Q 211.75 36.25 212.6 36.15 A 30.788 30.788 0 0 1 214.144 36.016 Q 215.031 35.963 215.827 35.973 A 17.741 17.741 0 0 1 216.6 36 Q 216.75 36 217.175 36.025 A 1.796 1.796 0 0 0 217.281 36.028 A 1.623 1.623 0 0 0 217.975 35.875 A 0.518 0.518 0 0 0 218.089 35.803 Q 218.278 35.645 218.33 35.295 A 2.005 2.005 0 0 0 218.35 35 A 0.979 0.979 0 0 0 218.346 34.922 Q 218.334 34.775 218.284 34.459 A 24.03 24.03 0 0 0 218.25 34.25 A 6.217 6.217 0 0 1 218.186 33.854 Q 218.047 32.81 218.012 30.649 A 98.715 98.715 0 0 1 218 29.05 L 218.05 23.65 A 43.918 43.918 0 0 1 218.058 22.823 A 51.097 51.097 0 0 1 218.15 20.6 Q 218.2 20.15 218.2 19.3 Q 219.25 19.35 221.15 19.35 L 225.85 19.35 Q 229.5 19.35 231.65 19.3 L 235.7 19.2 L 235.7 22.9 L 235.7 25 A 39.619 39.619 0 0 1 235.7 25.045 Q 235.7 25.386 235.694 25.768 A 65.974 65.974 0 0 1 235.675 26.575 Q 235.666 26.903 235.667 27.221 A 17.544 17.544 0 0 0 235.7 28.25 L 235.65 35.65 L 235.65 35.55 L 235.65 35.65 Z M 133.95 10 L 132.8 10.6 A 89.132 89.132 0 0 1 132.014 11.022 Q 130.881 11.623 130.35 11.85 A 36.391 36.391 0 0 0 129.596 12.307 Q 129.295 12.495 129.033 12.669 A 16.679 16.679 0 0 0 128.55 13 L 127.6 13.65 A 4.053 4.053 0 0 1 127.404 13.803 Q 127.185 13.963 126.859 14.17 A 18.41 18.41 0 0 1 126.65 14.3 A 0.855 0.855 0 0 1 126.497 14.393 Q 126.374 14.45 126.25 14.45 A 4.973 4.973 0 0 1 126.129 14.489 Q 125.962 14.54 125.88 14.548 A 0.29 0.29 0 0 1 125.85 14.55 A 0.359 0.359 0 0 1 125.612 14.457 Q 125.51 14.37 125.425 14.2 A 5.722 5.722 0 0 0 125.318 13.996 Q 125.261 13.892 125.206 13.805 A 2.334 2.334 0 0 0 125.1 13.65 L 124.7 13.05 Q 124.4 12.6 123.975 12.275 Q 123.55 11.95 123 11.95 Q 121.5 11.95 120.65 14.275 Q 119.8 16.6 119.8 19.15 A 75.905 75.905 0 0 0 119.808 20.267 Q 119.828 21.633 119.9 22.614 A 22.001 22.001 0 0 0 119.925 22.925 Q 120.05 24.35 120.725 25.55 A 2.226 2.226 0 0 0 122.314 26.693 A 3.353 3.353 0 0 0 122.95 26.75 A 2.508 2.508 0 0 0 125.105 25.608 Q 125.407 25.18 125.631 24.592 A 6.666 6.666 0 0 0 125.75 24.25 A 6.389 6.389 0 0 0 126.001 23.183 Q 126.1 22.523 126.1 21.75 L 125.1 21.55 Q 123.945 21.358 123.392 21.304 A 7.203 7.203 0 0 0 123.35 21.3 Q 122.4 21.2 122.4 20.6 A 1.54 1.54 0 0 1 122.417 20.406 Q 122.476 19.963 122.751 18.847 A 59.393 59.393 0 0 1 122.8 18.65 A 5.636 5.636 0 0 1 122.909 18.334 Q 123.081 17.88 123.253 17.734 A 0.362 0.362 0 0 1 123.3 17.7 A 0.7 0.7 0 0 1 123.482 17.626 Q 123.671 17.575 123.944 17.592 A 2.655 2.655 0 0 1 124.05 17.6 A 4.263 4.263 0 0 0 124.168 17.621 Q 124.474 17.674 125.225 17.775 A 37.321 37.321 0 0 0 125.755 17.842 Q 126.606 17.945 128.002 18.085 A 243.198 243.198 0 0 0 128.15 18.1 L 130.9 18.5 Q 133.316 18.845 134.354 18.93 A 10.448 10.448 0 0 0 134.65 18.95 Q 135.5 19 135.8 19.85 A 3.789 3.789 0 0 1 135.846 20.129 Q 135.886 20.452 135.85 20.7 Q 135.609 24.97 134.597 28.019 A 15.312 15.312 0 0 1 133.525 30.525 Q 132.077 33.184 130.292 34.645 A 8.414 8.414 0 0 1 128.95 35.55 Q 126.35 36.95 123.8 36.95 A 9.146 9.146 0 0 1 121.952 36.746 Q 121.035 36.556 120.011 36.19 A 21.547 21.547 0 0 1 118.325 35.5 A 11.114 11.114 0 0 1 115.396 33.509 Q 113.915 32.137 112.6 30.1 A 14.329 14.329 0 0 1 110.88 26.179 Q 110.05 23.228 110.05 19.35 A 41.845 41.845 0 0 1 110.273 14.877 Q 110.782 10.163 112.45 7.225 A 19.64 19.64 0 0 1 114.009 4.865 Q 114.926 3.686 115.919 2.868 A 8.576 8.576 0 0 1 117.85 1.65 A 16.516 16.516 0 0 1 120.552 0.692 A 12.145 12.145 0 0 1 123.55 0.3 A 14.98 14.98 0 0 1 126.23 0.524 Q 128.983 1.025 130.625 2.65 Q 133 5 134.05 7.1 Q 134.25 7.6 134.45 8.15 A 137.08 137.08 0 0 0 134.593 8.541 Q 134.65 8.696 134.702 8.835 A 73.766 73.766 0 0 0 134.8 9.1 A 0.441 0.441 0 0 1 134.836 9.205 Q 134.85 9.27 134.85 9.35 A 0.302 0.302 0 0 1 134.751 9.578 A 0.41 0.41 0 0 1 134.725 9.6 A 0.927 0.927 0 0 1 134.602 9.683 Q 134.536 9.72 134.457 9.753 A 1.723 1.723 0 0 1 134.4 9.775 A 2.125 2.125 0 0 0 134.23 9.848 Q 134.14 9.891 134.041 9.947 A 4.072 4.072 0 0 0 133.95 10 Z M 51.05 35.95 L 51.1 34.8 L 51 31.9 A 210.251 210.251 0 0 1 50.817 28.19 Q 50.744 26.356 50.717 24.729 A 111.476 111.476 0 0 1 50.7 22.85 A 42.055 42.055 0 0 1 50.709 21.955 Q 50.735 20.762 50.834 20.186 A 3.384 3.384 0 0 1 50.85 20.1 A 6.58 6.58 0 0 0 50.935 19.471 Q 51.1 17.763 51.1 13.05 Q 51.1 8.418 50.983 5.515 A 67.72 67.72 0 0 0 50.9 3.9 A 5.155 5.155 0 0 1 50.874 3.621 Q 50.854 3.329 50.851 2.933 A 18.396 18.396 0 0 1 50.85 2.8 Q 50.85 2.175 50.942 1.825 A 1.243 1.243 0 0 1 51 1.65 A 1.484 1.484 0 0 1 51.067 1.512 Q 51.142 1.377 51.224 1.319 A 0.228 0.228 0 0 1 51.325 1.275 Q 51.494 1.251 51.92 1.25 A 15.836 15.836 0 0 1 51.95 1.25 L 53.05 1.15 A 83.541 83.541 0 0 1 55.07 0.939 Q 56.85 0.777 58.141 0.754 A 23.16 23.16 0 0 1 58.55 0.75 Q 64.15 0.75 66.975 3.625 A 9.722 9.722 0 0 1 69.684 9.302 A 13.428 13.428 0 0 1 69.8 11.1 A 11.545 11.545 0 0 1 68.308 16.727 A 14.771 14.771 0 0 1 67.45 18.1 Q 66.45 19.55 65.15 20.7 L 68.65 27.05 A 750.11 750.11 0 0 0 69.982 29.427 Q 72.26 33.474 72.965 34.575 A 6.344 6.344 0 0 0 73.15 34.85 Q 73.719 35.744 73.826 36.142 A 0.625 0.625 0 0 1 73.85 36.3 A 0.234 0.234 0 0 1 73.82 36.422 Q 73.768 36.509 73.63 36.543 A 0.614 0.614 0 0 1 73.6 36.55 A 3.14 3.14 0 0 1 73.425 36.58 Q 73.285 36.6 73.175 36.6 L 72.9 36.6 L 67.25 36.75 Q 66.884 36.75 66.664 36.457 A 0.97 0.97 0 0 1 66.625 36.4 Q 66.402 36.053 66.007 35.165 A 29.678 29.678 0 0 1 66 35.15 A 7.873 7.873 0 0 0 65.808 34.64 Q 65.586 34.102 65.223 33.388 A 29.922 29.922 0 0 0 65.1 33.15 A 55.067 55.067 0 0 1 64.552 32.133 Q 63.766 30.645 62.483 28.075 A 523.985 523.985 0 0 1 61.65 26.4 L 59.1 21.45 L 59.25 24.1 L 59.5 27.9 A 448.891 448.891 0 0 0 59.574 29.481 Q 59.813 34.431 59.983 35.229 A 1.094 1.094 0 0 0 60 35.3 A 1.468 1.468 0 0 1 60.031 35.464 Q 60.05 35.613 60.05 35.8 Q 60.05 36.7 59.1 36.7 Q 58.877 36.7 58.71 36.672 A 1.367 1.367 0 0 1 58.6 36.65 A 2.745 2.745 0 0 0 58.43 36.635 Q 57.51 36.578 54.7 36.85 A 165.465 165.465 0 0 1 53.971 36.918 Q 52.516 37.05 52.15 37.05 A 2.647 2.647 0 0 1 51.86 37.035 Q 51.559 37.002 51.386 36.893 A 0.53 0.53 0 0 1 51.275 36.8 Q 51.07 36.572 51.052 36.053 A 2.962 2.962 0 0 1 51.05 35.95 Z M 77.4 35.95 L 77.45 34.8 L 77.35 31.9 A 210.251 210.251 0 0 1 77.167 28.19 Q 77.094 26.356 77.067 24.729 A 111.476 111.476 0 0 1 77.05 22.85 A 42.055 42.055 0 0 1 77.059 21.955 Q 77.085 20.762 77.184 20.186 A 3.384 3.384 0 0 1 77.2 20.1 A 6.58 6.58 0 0 0 77.285 19.471 Q 77.45 17.763 77.45 13.05 Q 77.45 8.418 77.333 5.515 A 67.72 67.72 0 0 0 77.25 3.9 A 5.155 5.155 0 0 1 77.224 3.621 Q 77.204 3.329 77.201 2.933 A 18.396 18.396 0 0 1 77.2 2.8 Q 77.2 2.175 77.292 1.825 A 1.243 1.243 0 0 1 77.35 1.65 A 1.484 1.484 0 0 1 77.417 1.512 Q 77.492 1.377 77.574 1.319 A 0.228 0.228 0 0 1 77.675 1.275 Q 77.844 1.251 78.27 1.25 A 15.836 15.836 0 0 1 78.3 1.25 L 79.4 1.15 A 83.541 83.541 0 0 1 81.42 0.939 Q 83.2 0.777 84.491 0.754 A 23.16 23.16 0 0 1 84.9 0.75 Q 90.5 0.75 93.325 3.625 A 9.722 9.722 0 0 1 96.034 9.302 A 13.428 13.428 0 0 1 96.15 11.1 A 11.545 11.545 0 0 1 94.658 16.727 A 14.771 14.771 0 0 1 93.8 18.1 Q 92.8 19.55 91.5 20.7 L 95 27.05 A 750.11 750.11 0 0 0 96.332 29.427 Q 98.61 33.474 99.315 34.575 A 6.344 6.344 0 0 0 99.5 34.85 Q 100.069 35.744 100.176 36.142 A 0.625 0.625 0 0 1 100.2 36.3 A 0.234 0.234 0 0 1 100.17 36.422 Q 100.118 36.509 99.98 36.543 A 0.614 0.614 0 0 1 99.95 36.55 A 3.14 3.14 0 0 1 99.775 36.58 Q 99.635 36.6 99.525 36.6 L 99.25 36.6 L 93.6 36.75 Q 93.234 36.75 93.014 36.457 A 0.97 0.97 0 0 1 92.975 36.4 Q 92.752 36.053 92.357 35.165 A 29.678 29.678 0 0 1 92.35 35.15 A 7.873 7.873 0 0 0 92.158 34.64 Q 91.936 34.102 91.573 33.388 A 29.922 29.922 0 0 0 91.45 33.15 A 55.067 55.067 0 0 1 90.902 32.133 Q 90.116 30.645 88.833 28.075 A 523.985 523.985 0 0 1 88 26.4 L 85.45 21.45 L 85.6 24.1 L 85.85 27.9 A 448.891 448.891 0 0 0 85.924 29.481 Q 86.163 34.431 86.333 35.229 A 1.094 1.094 0 0 0 86.35 35.3 A 1.468 1.468 0 0 1 86.381 35.464 Q 86.4 35.613 86.4 35.8 Q 86.4 36.7 85.45 36.7 Q 85.227 36.7 85.06 36.672 A 1.367 1.367 0 0 1 84.95 36.65 A 2.745 2.745 0 0 0 84.78 36.635 Q 83.86 36.578 81.05 36.85 A 165.465 165.465 0 0 1 80.321 36.918 Q 78.866 37.05 78.5 37.05 A 2.647 2.647 0 0 1 78.21 37.035 Q 77.909 37.002 77.736 36.893 A 0.53 0.53 0 0 1 77.625 36.8 Q 77.42 36.572 77.402 36.053 A 2.962 2.962 0 0 1 77.4 35.95 Z M 17.25 27.2 L 21.5 29.55 Q 21.7 29.65 22.125 29.825 Q 22.469 29.967 22.649 30.092 A 0.949 0.949 0 0 1 22.725 30.15 A 0.492 0.492 0 0 1 22.899 30.508 A 0.679 0.679 0 0 1 22.9 30.55 A 0.985 0.985 0 0 1 22.867 30.795 Q 22.83 30.941 22.75 31.1 A 11.183 11.183 0 0 1 21.65 32.62 Q 20.696 33.742 19.3 34.9 A 7.898 7.898 0 0 1 16.424 36.385 Q 15.276 36.719 13.906 36.813 A 16.16 16.16 0 0 1 12.8 36.85 Q 9.55 36.85 6.575 34.425 A 15.366 15.366 0 0 1 3.316 30.7 A 20.456 20.456 0 0 1 1.8 27.8 Q 0 23.6 0 18.55 Q 0 13.55 1.725 9.55 Q 3.45 5.55 6.15 3.3 Q 8.85 1.05 11.7 1.05 Q 15.25 1.05 17.425 2.525 A 19.389 19.389 0 0 1 18.665 3.435 Q 19.897 4.422 20.55 5.35 Q 20.75 5.65 20.925 5.9 A 1.075 1.075 0 0 1 21.039 6.103 A 0.768 0.768 0 0 1 21.1 6.4 Q 21.1 6.691 20.585 7.169 A 4.802 4.802 0 0 1 20.55 7.2 Q 18.419 8.868 17.404 10.15 A 7.824 7.824 0 0 0 17.25 10.35 Q 16.787 10.953 16.452 11.276 A 3.612 3.612 0 0 1 16.4 11.325 A 1.535 1.535 0 0 1 16.173 11.502 Q 16.033 11.59 15.893 11.625 A 0.775 0.775 0 0 1 15.7 11.65 A 0.618 0.618 0 0 1 15.448 11.591 Q 15.196 11.478 14.9 11.15 Q 13.85 10 13.275 9.525 A 2.068 2.068 0 0 0 12.006 9.052 A 2.622 2.622 0 0 0 11.9 9.05 Q 10.65 9.05 9.425 10.1 Q 8.206 11.145 7.359 13.551 A 16.058 16.058 0 0 0 7.35 13.575 A 13.166 13.166 0 0 0 6.832 15.587 Q 6.646 16.621 6.564 17.825 A 29.214 29.214 0 0 0 6.5 19.8 Q 6.5 22.296 6.989 24.098 A 8.696 8.696 0 0 0 7.575 25.675 A 11.192 11.192 0 0 0 8.276 26.905 Q 8.678 27.51 9.115 27.959 A 4.801 4.801 0 0 0 10.025 28.7 A 8.014 8.014 0 0 0 10.809 29.13 Q 11.674 29.539 12.364 29.55 A 2.375 2.375 0 0 0 12.4 29.55 A 2.889 2.889 0 0 0 13.428 29.352 Q 13.834 29.199 14.25 28.925 A 11.358 11.358 0 0 0 15.29 28.156 A 9.227 9.227 0 0 0 15.9 27.6 A 3.623 3.623 0 0 0 15.958 27.541 Q 16.046 27.448 16.19 27.289 A 28.409 28.409 0 0 0 16.225 27.25 Q 16.45 27 16.65 27 A 0.797 0.797 0 0 1 16.847 27.027 Q 17.026 27.073 17.243 27.196 A 2.575 2.575 0 0 1 17.25 27.2 Z M 303.1 34.55 L 303.3 28.35 A 1251.374 1251.374 0 0 0 303.402 25.516 Q 303.593 20.032 303.6 18.095 A 39.448 39.448 0 0 0 303.6 17.95 Q 303.6 16.65 303.5 14.05 L 303.45 11.4 Q 299.85 11.4 296.15 11.5 L 294.6 11.55 A 1.887 1.887 0 0 1 294.283 11.525 Q 294.116 11.497 293.986 11.435 A 0.73 0.73 0 0 1 293.7 11.2 A 0.803 0.803 0 0 1 293.544 10.724 Q 293.544 10.569 293.6 10.4 L 293.65 9.15 Q 293.75 6.25 293.75 3.8 Q 293.75 2.625 293.702 2.361 A 0.616 0.616 0 0 0 293.7 2.35 L 293.7 2 A 2.076 2.076 0 0 1 293.71 1.795 Q 293.746 1.43 293.925 1.35 Q 294.128 1.26 294.512 1.251 A 3.752 3.752 0 0 1 294.6 1.25 L 299.55 1.25 L 302.35 1.2 A 265.49 265.49 0 0 1 303.553 1.156 Q 305.038 1.106 305.824 1.101 A 26.127 26.127 0 0 1 306 1.1 L 309 1.15 A 385.621 385.621 0 0 0 310.703 1.194 Q 312.36 1.232 313.604 1.245 A 108.254 108.254 0 0 0 314.65 1.25 Q 316.15 1.25 316.6 1.2 Q 317.619 1.154 318.08 1.472 A 0.968 0.968 0 0 1 318.15 1.525 A 1.574 1.574 0 0 1 318.388 1.767 Q 318.521 1.938 318.57 2.123 A 0.869 0.869 0 0 1 318.6 2.35 A 3.615 3.615 0 0 1 318.598 2.472 Q 318.587 2.771 318.535 3.518 A 115.771 115.771 0 0 1 318.525 3.65 A 25.794 25.794 0 0 0 318.48 4.505 Q 318.45 5.28 318.45 6.25 A 35.819 35.819 0 0 0 318.465 7.223 Q 318.493 8.234 318.573 9.595 A 124.542 124.542 0 0 0 318.6 10.05 A 1.466 1.466 0 0 1 318.484 10.656 Q 318.149 11.4 316.85 11.4 L 308.05 11.4 L 307.95 16.55 Q 307.903 17.345 307.9 20.374 A 429.975 429.975 0 0 0 307.9 20.8 A 451.624 451.624 0 0 0 307.944 27.187 A 413.405 413.405 0 0 0 307.95 27.6 A 511.447 511.447 0 0 1 307.981 29.949 Q 307.991 30.874 307.995 31.712 A 273.116 273.116 0 0 1 308 33.3 L 308.05 35.35 L 308.05 35.6 A 2.506 2.506 0 0 1 308.045 35.774 Q 308.024 36.071 307.925 36.15 A 0.441 0.441 0 0 1 307.746 36.234 Q 307.683 36.249 307.61 36.25 A 0.789 0.789 0 0 1 307.6 36.25 L 307.3 36.25 L 303.9 36.25 Q 303.385 36.25 303.238 36.103 A 0.204 0.204 0 0 1 303.2 36.05 A 0.654 0.654 0 0 1 303.154 35.921 Q 303.118 35.78 303.106 35.559 A 4.367 4.367 0 0 1 303.1 35.325 L 303.1 34.55 Z M 24.45 34.65 L 24.9 32.8 L 25.25 31.75 Q 25.5 31 25.6 30.35 Q 25.85 29.15 26.55 26.7 L 26.95 25.3 Q 27.9 22.2 28.15 20.95 L 28.85 18.3 A 137.787 137.787 0 0 0 29.024 17.724 Q 29.369 16.566 29.45 16.2 Q 29.783 14.775 30.386 12.672 A 133.639 133.639 0 0 1 30.45 12.45 L 30.8 11.05 L 31.1 10 Q 31.495 8.657 31.797 7.907 A 7.181 7.181 0 0 1 31.95 7.55 Q 32.05 7.25 32.675 5.475 A 37.338 37.338 0 0 0 32.961 4.633 Q 33.35 3.438 33.5 2.65 A 13.192 13.192 0 0 1 33.71 1.99 Q 33.931 1.361 34.16 0.959 A 3.23 3.23 0 0 1 34.225 0.85 A 1.429 1.429 0 0 1 34.516 0.508 A 1.107 1.107 0 0 1 35.25 0.25 Q 35.458 0.25 35.665 0.56 A 1.986 1.986 0 0 1 35.75 0.7 A 6.723 6.723 0 0 1 35.961 1.115 Q 36.065 1.337 36.169 1.594 A 12.646 12.646 0 0 1 36.25 1.8 Q 36.491 2.426 36.593 2.727 A 6.716 6.716 0 0 1 36.6 2.75 A 7.626 7.626 0 0 1 36.771 3.207 Q 37.188 4.413 38 7.5 L 38.4 8.9 A 1.407 1.407 0 0 0 38.437 9.064 Q 38.65 9.863 40.05 13.8 L 41 16.55 L 41.9 18.9 Q 43.21 22.596 43.645 23.578 A 5.811 5.811 0 0 0 43.7 23.7 A 821.314 821.314 0 0 1 44.306 25.54 Q 45.507 29.206 45.75 30.1 A 19.664 19.664 0 0 0 46.041 31.071 Q 46.204 31.57 46.412 32.14 A 47.267 47.267 0 0 0 46.875 33.35 A 12455.41 12455.41 0 0 0 47.058 33.811 Q 47.663 35.331 47.75 35.55 A 3.883 3.883 0 0 1 47.812 35.703 Q 47.9 35.935 47.9 36.05 Q 47.9 36.234 47.433 36.249 A 2.684 2.684 0 0 1 47.35 36.25 L 44.55 36.25 A 0.872 0.872 0 0 1 44.416 36.24 Q 44.305 36.223 44.225 36.175 A 0.288 0.288 0 0 1 44.153 36.111 Q 44.093 36.039 44.04 35.908 A 1.735 1.735 0 0 1 44 35.8 Q 43.8 35.25 43.45 34 Q 43 32.75 42.85 31.75 A 13.086 13.086 0 0 0 42.713 31.145 Q 42.646 30.876 42.561 30.577 A 26.55 26.55 0 0 0 42.375 29.95 A 26.586 26.586 0 0 0 42.217 29.456 Q 41.988 28.763 41.8 28.35 Q 41.35 27.4 41 26.2 L 40.55 24.75 A 9.508 9.508 0 0 0 40.461 24.559 Q 40.277 24.177 40.175 24.075 Q 40.05 23.95 39.75 23.95 Q 38.719 23.95 38.219 23.998 A 4.986 4.986 0 0 0 38.2 24 L 36.05 24.1 Q 35.71 24.143 33.272 24.149 A 354.881 354.881 0 0 1 32.35 24.15 L 29.3 24.15 L 29.2 24.15 A 0.321 0.321 0 0 0 28.959 24.263 Q 28.856 24.373 28.783 24.592 A 1.96 1.96 0 0 0 28.75 24.7 L 28.65 25.2 L 28.45 26.15 Q 28.356 26.433 27.861 28.765 A 366.736 366.736 0 0 0 27.8 29.05 Q 27.654 29.881 27.316 31.19 A 56.086 56.086 0 0 1 27.3 31.25 A 5.938 5.938 0 0 1 27.19 31.951 Q 27.111 32.307 26.989 32.605 A 3.079 3.079 0 0 1 26.85 32.9 A 0.656 0.656 0 0 0 26.804 32.985 Q 26.732 33.139 26.639 33.462 A 9.893 9.893 0 0 0 26.6 33.6 Q 26.45 34.15 26.35 34.5 Q 26.236 34.804 26.093 35.396 A 23.268 23.268 0 0 0 26 35.8 A 0.179 0.179 0 0 0 25.975 35.833 Q 25.941 35.888 25.908 36 A 1.794 1.794 0 0 0 25.9 36.025 A 0.573 0.573 0 0 1 25.874 36.099 Q 25.827 36.206 25.75 36.225 A 0.624 0.624 0 0 1 25.686 36.237 Q 25.616 36.247 25.515 36.249 A 2.813 2.813 0 0 1 25.45 36.25 L 24.45 36.25 A 0.436 0.436 0 0 1 24.318 36.232 Q 24.044 36.144 24.189 35.638 A 2.038 2.038 0 0 1 24.2 35.6 Q 24.2 35.479 24.233 35.391 A 0.397 0.397 0 0 1 24.25 35.35 Q 24.25 35.25 24.3 35.1 L 24.45 34.65 Z M 138.15 34.65 L 138.6 32.8 L 138.95 31.75 Q 139.2 31 139.3 30.35 Q 139.55 29.15 140.25 26.7 L 140.65 25.3 Q 141.6 22.2 141.85 20.95 L 142.55 18.3 A 137.787 137.787 0 0 0 142.724 17.724 Q 143.069 16.566 143.15 16.2 Q 143.483 14.775 144.086 12.672 A 133.639 133.639 0 0 1 144.15 12.45 L 144.5 11.05 L 144.8 10 Q 145.195 8.657 145.497 7.907 A 7.181 7.181 0 0 1 145.65 7.55 Q 145.75 7.25 146.375 5.475 A 37.338 37.338 0 0 0 146.661 4.633 Q 147.05 3.438 147.2 2.65 A 13.192 13.192 0 0 1 147.41 1.99 Q 147.631 1.361 147.86 0.959 A 3.23 3.23 0 0 1 147.925 0.85 A 1.429 1.429 0 0 1 148.216 0.508 A 1.107 1.107 0 0 1 148.95 0.25 Q 149.158 0.25 149.365 0.56 A 1.986 1.986 0 0 1 149.45 0.7 A 6.723 6.723 0 0 1 149.661 1.115 Q 149.765 1.337 149.869 1.594 A 12.646 12.646 0 0 1 149.95 1.8 Q 150.191 2.426 150.293 2.727 A 6.716 6.716 0 0 1 150.3 2.75 A 7.626 7.626 0 0 1 150.471 3.207 Q 150.888 4.413 151.7 7.5 L 152.1 8.9 A 1.407 1.407 0 0 0 152.137 9.064 Q 152.35 9.863 153.75 13.8 L 154.7 16.55 L 155.6 18.9 Q 156.91 22.596 157.345 23.578 A 5.811 5.811 0 0 0 157.4 23.7 A 821.314 821.314 0 0 1 158.006 25.54 Q 159.207 29.206 159.45 30.1 A 19.664 19.664 0 0 0 159.741 31.071 Q 159.904 31.57 160.112 32.14 A 47.267 47.267 0 0 0 160.575 33.35 A 12455.41 12455.41 0 0 0 160.758 33.811 Q 161.363 35.331 161.45 35.55 A 3.883 3.883 0 0 1 161.512 35.703 Q 161.6 35.935 161.6 36.05 Q 161.6 36.234 161.133 36.249 A 2.684 2.684 0 0 1 161.05 36.25 L 158.25 36.25 A 0.872 0.872 0 0 1 158.116 36.24 Q 158.005 36.223 157.925 36.175 A 0.288 0.288 0 0 1 157.853 36.111 Q 157.793 36.039 157.74 35.908 A 1.735 1.735 0 0 1 157.7 35.8 Q 157.5 35.25 157.15 34 Q 156.7 32.75 156.55 31.75 A 13.086 13.086 0 0 0 156.413 31.145 Q 156.346 30.876 156.261 30.577 A 26.55 26.55 0 0 0 156.075 29.95 A 26.586 26.586 0 0 0 155.917 29.456 Q 155.688 28.763 155.5 28.35 Q 155.05 27.4 154.7 26.2 L 154.25 24.75 A 9.508 9.508 0 0 0 154.161 24.559 Q 153.977 24.177 153.875 24.075 Q 153.75 23.95 153.45 23.95 Q 152.419 23.95 151.919 23.998 A 4.986 4.986 0 0 0 151.9 24 L 149.75 24.1 Q 149.41 24.143 146.972 24.149 A 354.881 354.881 0 0 1 146.05 24.15 L 143 24.15 L 142.9 24.15 A 0.321 0.321 0 0 0 142.659 24.263 Q 142.556 24.373 142.483 24.592 A 1.96 1.96 0 0 0 142.45 24.7 L 142.35 25.2 L 142.15 26.15 Q 142.056 26.433 141.561 28.765 A 366.736 366.736 0 0 0 141.5 29.05 Q 141.354 29.881 141.016 31.19 A 56.086 56.086 0 0 1 141 31.25 A 5.938 5.938 0 0 1 140.89 31.951 Q 140.811 32.307 140.689 32.605 A 3.079 3.079 0 0 1 140.55 32.9 A 0.656 0.656 0 0 0 140.504 32.985 Q 140.432 33.139 140.339 33.462 A 9.893 9.893 0 0 0 140.3 33.6 Q 140.15 34.15 140.05 34.5 Q 139.936 34.804 139.793 35.396 A 23.268 23.268 0 0 0 139.7 35.8 A 0.179 0.179 0 0 0 139.675 35.833 Q 139.641 35.888 139.608 36 A 1.794 1.794 0 0 0 139.6 36.025 A 0.573 0.573 0 0 1 139.574 36.099 Q 139.527 36.206 139.45 36.225 A 0.624 0.624 0 0 1 139.386 36.237 Q 139.316 36.247 139.215 36.249 A 2.813 2.813 0 0 1 139.15 36.25 L 138.15 36.25 A 0.436 0.436 0 0 1 138.018 36.232 Q 137.744 36.144 137.889 35.638 A 2.038 2.038 0 0 1 137.9 35.6 Q 137.9 35.479 137.933 35.391 A 0.397 0.397 0 0 1 137.95 35.35 Q 137.95 35.25 138 35.1 L 138.15 34.65 Z M 272.85 35.65 L 272.85 31.75 L 273.05 15 A 49.28 49.28 0 0 0 273.036 13.898 Q 273 12.36 272.881 9.778 A 445.266 445.266 0 0 0 272.8 8.1 L 272.6 1.95 A 1.63 1.63 0 0 1 272.627 1.64 Q 272.732 1.1 273.25 1.1 Q 273.5 1.1 274.1 1.25 A 7.317 7.317 0 0 0 274.434 1.326 Q 274.759 1.391 274.988 1.399 A 1.79 1.79 0 0 0 275.05 1.4 A 17.996 17.996 0 0 0 276.279 1.53 Q 276.881 1.574 277.559 1.59 A 34.554 34.554 0 0 0 278.4 1.6 A 21.673 21.673 0 0 0 280.186 1.529 A 18.378 18.378 0 0 0 280.95 1.45 A 4.258 4.258 0 0 1 281.131 1.43 Q 281.574 1.39 281.833 1.472 A 0.659 0.659 0 0 1 282 1.55 A 0.645 0.645 0 0 1 282.274 1.955 A 1.063 1.063 0 0 1 282.3 2.2 A 3.588 3.588 0 0 1 282.255 2.762 A 4.122 4.122 0 0 1 282.225 2.925 A 3.787 3.787 0 0 0 282.165 3.371 A 4.841 4.841 0 0 0 282.15 3.75 L 282.05 6.45 Q 281.85 10.55 281.85 12.6 L 281.95 20.15 Q 282 21.95 282 23.85 L 281.9 29.3 L 281.85 30.3 L 281.9 31.7 L 282 33.45 L 289.15 33.7 L 295.1 33.75 L 295.2 33.75 A 1.411 1.411 0 0 1 295.304 33.754 Q 295.51 33.769 295.55 33.85 Q 295.6 33.95 295.575 34.125 Q 295.555 34.269 295.551 34.363 A 0.969 0.969 0 0 0 295.55 34.4 A 0.571 0.571 0 0 0 295.538 34.468 Q 295.512 34.683 295.575 35.15 A 8.722 8.722 0 0 1 295.631 35.674 A 6.365 6.365 0 0 1 295.65 36.15 Q 295.65 36.5 295.4 36.6 Q 295.163 36.695 294.812 36.677 A 2.364 2.364 0 0 1 294.775 36.675 A 17.7 17.7 0 0 0 294.599 36.664 Q 294.409 36.653 294.276 36.651 A 3.993 3.993 0 0 0 294.2 36.65 L 291.55 36.5 A 158.217 158.217 0 0 0 289.928 36.369 Q 287.924 36.218 286.843 36.202 A 16.491 16.491 0 0 0 286.6 36.2 A 35.949 35.949 0 0 0 285.828 36.211 Q 283.782 36.256 278.5 36.5 L 273.95 36.65 A 1.753 1.753 0 0 1 273.528 36.604 Q 272.978 36.467 272.874 35.923 A 1.463 1.463 0 0 1 272.85 35.65 Z M 252.608 36.873 A 12.97 12.97 0 0 0 256.25 37.35 Q 259.9 37.35 262.4 34.45 A 16.662 16.662 0 0 0 264.458 31.44 A 20.524 20.524 0 0 0 266.1 27.325 A 33.93 33.93 0 0 0 266.568 25.487 A 29.107 29.107 0 0 0 267.3 19.1 A 69.708 69.708 0 0 0 267.3 18.946 Q 267.289 14.089 266.6 10.225 Q 265.9 6.3 263.4 3.425 A 7.507 7.507 0 0 0 261.911 2.111 Q 260.571 1.212 258.781 0.831 A 13.839 13.839 0 0 0 255.9 0.55 A 8.936 8.936 0 0 0 253.049 1.029 A 11.717 11.717 0 0 0 250.675 2.15 A 8.497 8.497 0 0 0 249.195 3.304 Q 248.295 4.174 247.509 5.383 A 18.224 18.224 0 0 0 246.225 7.75 Q 245.013 10.406 244.606 14.231 A 39.493 39.493 0 0 0 244.4 18.4 A 39.932 39.932 0 0 0 244.415 19.473 A 34.948 34.948 0 0 0 246.75 31.325 A 12.434 12.434 0 0 0 246.804 31.46 Q 248.504 35.675 252.608 36.873 Z M 102.55 36.1 L 102.6 34.5 L 102.7 27.95 L 102.8 17.45 A 42.255 42.255 0 0 1 102.807 16.754 Q 102.838 14.956 103 10.65 Q 103.046 9.499 103.135 7.012 A 2596.048 2596.048 0 0 0 103.15 6.575 Q 103.25 3.75 103.15 3.25 L 103.1 2.2 Q 103.1 1.331 103.458 1.043 A 0.683 0.683 0 0 1 103.9 0.9 L 105.75 0.95 Q 106.25 0.95 106.25 1.65 A 3.031 3.031 0 0 1 106.241 1.883 Q 106.231 2.002 106.213 2.135 A 5.396 5.396 0 0 1 106.2 2.225 A 4.257 4.257 0 0 0 106.153 2.698 A 3.717 3.717 0 0 0 106.15 2.85 Q 106 3.95 105.9 8.5 Q 105.9 9.81 105.725 14.885 A 1231.675 1231.675 0 0 1 105.7 15.6 Q 105.513 20.747 105.501 22.128 A 19.92 19.92 0 0 0 105.5 22.3 Q 105.5 25.056 105.591 29.188 A 582.894 582.894 0 0 0 105.6 29.625 Q 105.691 33.651 105.782 34.718 A 5.834 5.834 0 0 0 105.8 34.9 A 3.407 3.407 0 0 1 105.834 35.182 Q 105.846 35.327 105.849 35.49 A 6.069 6.069 0 0 1 105.85 35.6 A 1.552 1.552 0 0 1 105.841 35.772 Q 105.822 35.947 105.759 36.053 A 0.373 0.373 0 0 1 105.725 36.1 Q 105.634 36.209 105.478 36.318 A 2.267 2.267 0 0 1 105.35 36.4 A 0.699 0.699 0 0 1 105.166 36.48 Q 104.767 36.6 103.8 36.6 L 103.175 36.6 A 2.806 2.806 0 0 1 103.01 36.596 Q 102.775 36.582 102.681 36.524 A 0.168 0.168 0 0 1 102.65 36.5 Q 102.569 36.419 102.554 36.206 A 1.484 1.484 0 0 1 102.55 36.1 Z M 31.1 20.85 L 34 20.75 A 5.739 5.739 0 0 1 34.412 20.698 Q 34.833 20.66 35.411 20.652 A 22.022 22.022 0 0 1 35.7 20.65 L 38.4 20.7 A 1.804 1.804 0 0 0 38.621 20.688 Q 39.05 20.635 39.05 20.35 Q 39.05 20.147 38.819 19.548 A 14.252 14.252 0 0 0 38.7 19.25 A 10.912 10.912 0 0 1 38.537 18.811 Q 38.255 18.004 37.8 16.45 Q 37.438 15.122 37.076 14.086 A 22.858 22.858 0 0 0 36.9 13.6 A 58.674 58.674 0 0 1 36.515 12.398 Q 36.35 11.865 36.177 11.278 A 104.939 104.939 0 0 1 35.825 10.05 A 107.774 107.774 0 0 1 35.596 9.223 Q 35.229 7.872 35.151 7.402 A 2.586 2.586 0 0 1 35.15 7.4 A 52.168 52.168 0 0 0 34.971 6.779 Q 34.369 4.75 34.15 4.75 A 0.098 0.098 0 0 0 34.084 4.802 Q 33.961 4.973 33.754 5.713 A 21.126 21.126 0 0 0 33.65 6.1 L 33.35 7.2 A 192.948 192.948 0 0 1 33.163 7.917 Q 32.872 9.02 32.477 10.478 A 544.053 544.053 0 0 1 32.45 10.575 A 109.878 109.878 0 0 1 32.052 12.006 Q 31.732 13.125 31.45 14 Q 31.15 15.3 30.625 17.275 A 67.916 67.916 0 0 1 30.381 18.173 Q 30.043 19.377 29.821 19.947 A 5.725 5.725 0 0 1 29.8 20 A 9.843 9.843 0 0 0 29.766 20.104 Q 29.7 20.309 29.7 20.35 Q 29.7 20.665 29.963 20.777 A 0.623 0.623 0 0 0 30.025 20.8 Q 30.35 20.9 30.675 20.875 Q 31 20.85 31.1 20.85 Z M 144.8 20.85 L 147.7 20.75 A 5.739 5.739 0 0 1 148.112 20.698 Q 148.533 20.66 149.111 20.652 A 22.022 22.022 0 0 1 149.4 20.65 L 152.1 20.7 A 1.804 1.804 0 0 0 152.321 20.688 Q 152.75 20.635 152.75 20.35 Q 152.75 20.147 152.519 19.548 A 14.252 14.252 0 0 0 152.4 19.25 A 10.912 10.912 0 0 1 152.237 18.811 Q 151.955 18.004 151.5 16.45 Q 151.138 15.122 150.776 14.086 A 22.858 22.858 0 0 0 150.6 13.6 A 58.674 58.674 0 0 1 150.215 12.398 Q 150.05 11.865 149.877 11.278 A 104.939 104.939 0 0 1 149.525 10.05 A 107.774 107.774 0 0 1 149.296 9.223 Q 148.929 7.872 148.851 7.402 A 2.586 2.586 0 0 1 148.85 7.4 A 52.168 52.168 0 0 0 148.671 6.779 Q 148.069 4.75 147.85 4.75 A 0.098 0.098 0 0 0 147.784 4.802 Q 147.661 4.973 147.454 5.713 A 21.126 21.126 0 0 0 147.35 6.1 L 147.05 7.2 A 192.948 192.948 0 0 1 146.863 7.917 Q 146.572 9.02 146.177 10.478 A 544.053 544.053 0 0 1 146.15 10.575 A 109.878 109.878 0 0 1 145.752 12.006 Q 145.432 13.125 145.15 14 Q 144.85 15.3 144.325 17.275 A 67.916 67.916 0 0 1 144.081 18.173 Q 143.743 19.377 143.521 19.947 A 5.725 5.725 0 0 1 143.5 20 A 9.843 9.843 0 0 0 143.466 20.104 Q 143.4 20.309 143.4 20.35 Q 143.4 20.665 143.663 20.777 A 0.623 0.623 0 0 0 143.725 20.8 Q 144.05 20.9 144.375 20.875 Q 144.7 20.85 144.8 20.85 Z M 255.85 24.65 A 1.919 1.919 0 0 0 257.442 23.858 A 3.302 3.302 0 0 0 257.85 23.15 Q 258.45 21.767 258.496 19.875 A 13.123 13.123 0 0 0 258.5 19.55 A 10.846 10.846 0 0 0 258.372 17.84 A 7.863 7.863 0 0 0 257.875 16.05 A 4.168 4.168 0 0 0 257.559 15.429 Q 257.004 14.55 256.2 14.55 Q 254.95 14.55 254.325 16.275 A 10.58 10.58 0 0 0 253.722 19.26 A 12.33 12.33 0 0 0 253.7 20 Q 253.7 21.44 253.898 22.511 A 7.465 7.465 0 0 0 254.1 23.35 Q 254.451 24.489 255.531 24.63 A 2.469 2.469 0 0 0 255.85 24.65 Z M 58.8 13.95 L 58.75 14.4 L 58.8 14.8 A 3.23 3.23 0 0 0 59.597 14.705 A 2.739 2.739 0 0 0 60.15 14.5 A 2.275 2.275 0 0 0 61.427 12.919 Q 61.55 12.444 61.55 11.85 A 7.469 7.469 0 0 0 61.515 11.094 Q 61.436 10.327 61.186 9.848 A 1.899 1.899 0 0 0 61.1 9.7 A 1.846 1.846 0 0 0 60.795 9.331 A 1.215 1.215 0 0 0 59.95 9 A 1.295 1.295 0 0 0 59.013 9.388 A 1.637 1.637 0 0 0 59 9.4 A 0.058 0.058 0 0 0 58.988 9.425 Q 58.959 9.534 58.996 10.05 A 14.987 14.987 0 0 0 59 10.1 Q 59.05 10.75 59.05 11.4 Q 59.05 11.815 59.022 12.059 A 1.772 1.772 0 0 1 59 12.2 Q 58.8 13.05 58.8 13.95 Z M 85.15 13.95 L 85.1 14.4 L 85.15 14.8 A 3.23 3.23 0 0 0 85.947 14.705 A 2.739 2.739 0 0 0 86.5 14.5 A 2.275 2.275 0 0 0 87.777 12.919 Q 87.9 12.444 87.9 11.85 A 7.469 7.469 0 0 0 87.865 11.094 Q 87.786 10.327 87.536 9.848 A 1.899 1.899 0 0 0 87.45 9.7 A 1.846 1.846 0 0 0 87.145 9.331 A 1.215 1.215 0 0 0 86.3 9 A 1.295 1.295 0 0 0 85.363 9.388 A 1.637 1.637 0 0 0 85.35 9.4 A 0.058 0.058 0 0 0 85.338 9.425 Q 85.309 9.534 85.346 10.05 A 14.987 14.987 0 0 0 85.35 10.1 Q 85.4 10.75 85.4 11.4 Q 85.4 11.815 85.372 12.059 A 1.772 1.772 0 0 1 85.35 12.2 Q 85.15 13.05 85.15 13.95 Z" vector-effect="non-scaling-stroke"/></g></svg>